<svg xmlns="http://www.w3.org/2000/svg" viewBox="0 0 1024 1024">
<path d="M 631,4 L 630,5 L 629,5 L 627,7 L 626,7 L 626,8 L 624,10 L 624,13 L 623,14 L 623,15 L 624,16 L 624,19 L 625,20 L 625,21 L 626,22 L 626,23 L 628,25 L 630,25 L 631,26 L 633,26 L 634,27 L 636,27 L 637,28 L 640,28 L 641,29 L 643,29 L 644,30 L 646,30 L 647,31 L 650,31 L 651,32 L 653,32 L 654,33 L 657,33 L 658,34 L 660,34 L 661,35 L 664,35 L 665,36 L 667,36 L 668,37 L 671,37 L 672,38 L 674,38 L 675,39 L 677,39 L 678,40 L 681,40 L 682,41 L 684,41 L 685,42 L 687,42 L 688,43 L 691,43 L 692,44 L 694,44 L 695,45 L 698,45 L 699,46 L 701,46 L 702,47 L 704,47 L 705,48 L 707,48 L 708,49 L 711,49 L 712,50 L 714,50 L 715,51 L 717,51 L 718,52 L 721,52 L 722,53 L 724,53 L 725,54 L 727,54 L 728,55 L 730,55 L 731,56 L 733,56 L 734,57 L 736,57 L 737,58 L 739,58 L 740,59 L 742,59 L 743,60 L 745,60 L 746,61 L 748,61 L 749,62 L 750,62 L 751,63 L 753,63 L 754,64 L 756,64 L 757,65 L 759,65 L 760,66 L 761,66 L 762,67 L 764,67 L 765,68 L 766,68 L 767,69 L 767,70 L 766,71 L 734,71 L 733,70 L 703,70 L 702,69 L 675,69 L 674,68 L 652,68 L 652,72 L 651,73 L 651,77 L 650,78 L 650,83 L 649,84 L 649,86 L 648,87 L 648,88 L 644,92 L 643,92 L 642,93 L 631,93 L 630,92 L 627,92 L 626,91 L 622,91 L 621,90 L 617,90 L 616,89 L 611,89 L 610,88 L 605,88 L 604,87 L 598,87 L 597,86 L 591,86 L 590,85 L 581,85 L 580,84 L 569,84 L 568,83 L 532,83 L 531,84 L 521,84 L 520,85 L 514,85 L 513,86 L 507,86 L 506,87 L 502,87 L 501,88 L 498,88 L 497,89 L 493,89 L 492,90 L 489,90 L 488,91 L 486,91 L 485,92 L 482,92 L 481,93 L 479,93 L 478,94 L 476,94 L 475,95 L 473,95 L 472,96 L 471,96 L 470,97 L 468,97 L 467,98 L 466,98 L 465,99 L 463,99 L 462,100 L 461,100 L 460,101 L 459,101 L 458,102 L 456,102 L 455,103 L 454,103 L 453,104 L 452,104 L 451,105 L 450,105 L 449,106 L 448,106 L 447,107 L 446,107 L 445,108 L 444,108 L 442,110 L 441,110 L 440,111 L 439,111 L 438,112 L 437,112 L 435,114 L 434,114 L 432,116 L 431,116 L 428,119 L 427,119 L 424,122 L 423,122 L 418,127 L 417,127 L 394,150 L 393,150 L 392,151 L 391,151 L 390,152 L 374,152 L 373,153 L 364,153 L 363,154 L 359,154 L 358,155 L 355,155 L 354,156 L 352,156 L 351,157 L 349,157 L 348,158 L 347,158 L 346,159 L 345,159 L 343,161 L 342,161 L 340,163 L 339,163 L 332,170 L 332,171 L 330,173 L 330,174 L 329,175 L 329,176 L 328,177 L 328,179 L 327,180 L 327,182 L 326,183 L 326,185 L 325,186 L 325,188 L 324,189 L 324,192 L 323,193 L 323,195 L 322,196 L 322,198 L 321,199 L 321,201 L 320,202 L 320,205 L 319,206 L 319,208 L 318,209 L 318,211 L 317,212 L 317,215 L 316,216 L 316,218 L 315,219 L 315,221 L 314,222 L 314,225 L 313,226 L 313,228 L 312,229 L 312,231 L 311,232 L 311,234 L 310,235 L 310,238 L 309,239 L 309,241 L 308,242 L 308,244 L 307,245 L 307,247 L 306,248 L 306,250 L 305,251 L 305,253 L 304,254 L 304,257 L 303,258 L 303,267 L 304,268 L 304,270 L 305,271 L 305,272 L 306,273 L 306,274 L 307,275 L 307,276 L 310,279 L 310,280 L 318,288 L 319,288 L 323,292 L 323,297 L 322,298 L 322,302 L 321,303 L 321,307 L 320,308 L 320,312 L 319,313 L 319,316 L 318,317 L 318,321 L 317,322 L 317,325 L 316,326 L 316,330 L 315,331 L 315,334 L 314,335 L 314,339 L 313,340 L 313,344 L 312,345 L 312,348 L 311,349 L 311,353 L 310,354 L 310,358 L 309,359 L 309,362 L 308,363 L 308,366 L 307,367 L 307,371 L 306,372 L 306,376 L 305,377 L 305,380 L 304,381 L 304,385 L 303,386 L 303,390 L 302,391 L 302,394 L 301,395 L 301,399 L 300,400 L 300,403 L 299,404 L 299,408 L 298,409 L 298,412 L 297,413 L 297,416 L 296,417 L 296,421 L 295,422 L 295,425 L 294,426 L 294,429 L 293,430 L 293,434 L 292,435 L 292,438 L 291,439 L 291,441 L 289,443 L 269,443 L 268,444 L 261,444 L 260,445 L 255,445 L 254,446 L 251,446 L 250,447 L 247,447 L 246,448 L 244,448 L 243,449 L 242,449 L 241,450 L 239,450 L 238,451 L 237,451 L 236,452 L 235,452 L 234,453 L 233,453 L 231,455 L 230,455 L 228,457 L 227,457 L 217,467 L 217,468 L 215,470 L 215,471 L 213,473 L 213,474 L 211,476 L 211,477 L 210,478 L 210,479 L 209,480 L 209,481 L 208,482 L 208,483 L 207,484 L 207,485 L 206,486 L 206,488 L 205,489 L 205,490 L 204,491 L 204,493 L 203,494 L 203,496 L 202,497 L 202,500 L 201,501 L 201,503 L 200,504 L 200,508 L 199,509 L 199,513 L 198,514 L 198,521 L 197,522 L 197,538 L 198,539 L 198,545 L 199,546 L 199,549 L 200,550 L 200,553 L 201,554 L 201,557 L 202,558 L 202,559 L 203,560 L 203,561 L 202,562 L 201,562 L 200,563 L 199,563 L 197,565 L 196,565 L 194,567 L 193,567 L 191,569 L 190,569 L 188,571 L 187,571 L 181,577 L 180,577 L 173,584 L 173,585 L 169,589 L 169,590 L 167,592 L 167,593 L 166,594 L 166,595 L 165,596 L 165,597 L 164,598 L 164,599 L 163,600 L 163,601 L 162,602 L 162,603 L 161,604 L 161,606 L 160,607 L 160,608 L 159,609 L 159,611 L 158,612 L 158,615 L 157,616 L 157,619 L 156,620 L 156,624 L 155,625 L 155,652 L 156,653 L 156,657 L 157,658 L 157,661 L 158,662 L 158,664 L 159,665 L 159,667 L 160,668 L 160,669 L 161,670 L 161,671 L 162,672 L 162,673 L 164,675 L 164,676 L 165,677 L 165,678 L 166,679 L 156,689 L 156,690 L 153,693 L 153,694 L 151,696 L 151,697 L 149,699 L 149,700 L 148,701 L 148,702 L 147,703 L 147,704 L 146,705 L 146,706 L 145,707 L 145,709 L 144,710 L 144,711 L 143,712 L 143,714 L 142,715 L 142,718 L 141,719 L 141,723 L 140,724 L 140,729 L 139,730 L 139,738 L 138,739 L 138,763 L 139,764 L 139,770 L 140,771 L 140,775 L 141,776 L 141,778 L 142,779 L 142,781 L 143,782 L 143,784 L 144,785 L 144,786 L 145,787 L 145,788 L 147,790 L 147,791 L 155,799 L 156,799 L 158,801 L 158,802 L 159,803 L 158,804 L 158,805 L 157,806 L 157,807 L 156,808 L 156,809 L 155,810 L 155,811 L 154,812 L 154,813 L 153,814 L 153,816 L 152,817 L 152,818 L 151,819 L 151,822 L 150,823 L 150,825 L 149,826 L 149,829 L 148,830 L 148,834 L 147,835 L 147,842 L 146,843 L 146,866 L 147,867 L 147,872 L 148,873 L 148,877 L 149,878 L 149,880 L 150,881 L 150,883 L 151,884 L 151,885 L 152,886 L 152,887 L 153,888 L 153,889 L 154,890 L 154,891 L 155,892 L 155,893 L 156,894 L 156,895 L 158,897 L 158,898 L 159,899 L 159,900 L 161,902 L 161,903 L 169,911 L 170,911 L 172,913 L 173,913 L 174,914 L 175,914 L 176,915 L 177,915 L 178,916 L 180,916 L 181,917 L 183,917 L 185,919 L 185,924 L 184,925 L 184,929 L 183,930 L 183,933 L 182,934 L 182,936 L 181,937 L 181,940 L 180,941 L 180,944 L 179,945 L 179,948 L 180,949 L 180,952 L 182,954 L 182,955 L 193,966 L 194,966 L 197,969 L 198,969 L 200,971 L 201,971 L 203,973 L 204,973 L 206,975 L 207,975 L 209,977 L 210,977 L 211,978 L 212,978 L 214,980 L 215,980 L 216,981 L 217,981 L 218,982 L 219,982 L 221,984 L 222,984 L 223,985 L 224,985 L 225,986 L 226,986 L 227,987 L 228,987 L 229,988 L 230,988 L 231,989 L 232,989 L 233,990 L 234,990 L 235,991 L 236,991 L 237,992 L 238,992 L 239,993 L 240,993 L 241,994 L 242,994 L 243,995 L 244,995 L 245,996 L 246,996 L 247,997 L 248,997 L 249,998 L 250,998 L 251,999 L 253,999 L 254,1000 L 255,1000 L 256,1001 L 257,1001 L 258,1002 L 259,1002 L 260,1003 L 262,1003 L 263,1004 L 264,1004 L 265,1005 L 266,1005 L 267,1006 L 269,1006 L 270,1007 L 271,1007 L 272,1008 L 273,1008 L 274,1009 L 276,1009 L 277,1010 L 278,1010 L 279,1011 L 281,1011 L 282,1012 L 283,1012 L 284,1013 L 286,1013 L 287,1014 L 288,1014 L 289,1015 L 291,1015 L 292,1016 L 293,1016 L 294,1017 L 296,1017 L 297,1018 L 299,1018 L 300,1019 L 302,1019 L 303,1020 L 304,1020 L 305,1021 L 307,1021 L 308,1022 L 310,1022 L 311,1023 L 491,1023 L 492,1022 L 492,1020 L 493,1019 L 493,1018 L 494,1017 L 494,1016 L 495,1015 L 495,1014 L 496,1013 L 496,1011 L 497,1010 L 497,1009 L 498,1008 L 498,1007 L 499,1006 L 499,1004 L 500,1003 L 500,1002 L 501,1001 L 501,1000 L 502,999 L 502,998 L 503,997 L 503,995 L 504,994 L 504,993 L 505,992 L 505,991 L 506,990 L 506,988 L 507,987 L 507,986 L 508,985 L 508,984 L 509,983 L 509,981 L 510,980 L 510,979 L 511,978 L 511,977 L 512,976 L 512,975 L 513,974 L 513,972 L 514,971 L 514,970 L 515,969 L 515,968 L 516,967 L 516,966 L 517,965 L 517,963 L 518,962 L 518,961 L 519,960 L 519,959 L 520,958 L 520,956 L 521,955 L 521,954 L 522,953 L 522,952 L 523,951 L 523,950 L 524,949 L 524,947 L 525,946 L 525,945 L 526,944 L 526,943 L 527,942 L 527,941 L 528,940 L 528,938 L 529,937 L 529,936 L 530,935 L 530,934 L 531,933 L 531,932 L 534,929 L 535,929 L 537,927 L 538,927 L 541,924 L 542,924 L 544,922 L 545,922 L 548,919 L 549,919 L 551,917 L 552,917 L 554,915 L 555,915 L 558,912 L 559,912 L 561,910 L 562,910 L 564,908 L 565,908 L 568,905 L 569,905 L 571,903 L 572,903 L 575,900 L 576,900 L 578,898 L 579,898 L 582,895 L 583,895 L 585,893 L 586,893 L 589,890 L 590,890 L 592,888 L 593,888 L 596,885 L 597,885 L 600,882 L 601,882 L 603,880 L 604,880 L 607,877 L 608,877 L 610,875 L 611,875 L 614,872 L 615,872 L 618,869 L 619,869 L 622,866 L 623,866 L 626,863 L 627,863 L 630,860 L 631,860 L 634,857 L 635,857 L 638,854 L 639,854 L 642,851 L 643,851 L 646,848 L 647,848 L 650,845 L 651,845 L 654,842 L 655,842 L 658,839 L 659,839 L 663,835 L 664,835 L 667,832 L 668,832 L 671,829 L 672,829 L 676,825 L 677,825 L 681,821 L 682,821 L 687,816 L 688,816 L 702,802 L 702,801 L 706,797 L 706,796 L 708,794 L 708,793 L 709,792 L 709,791 L 710,790 L 710,789 L 711,788 L 711,787 L 712,786 L 712,785 L 713,784 L 713,782 L 714,781 L 714,779 L 715,778 L 715,776 L 716,775 L 716,773 L 717,772 L 717,769 L 718,768 L 718,765 L 719,764 L 719,761 L 720,760 L 720,757 L 721,756 L 721,753 L 722,752 L 722,749 L 723,748 L 723,745 L 724,744 L 724,741 L 725,740 L 725,738 L 726,737 L 726,734 L 727,733 L 727,730 L 728,729 L 728,726 L 729,725 L 729,722 L 730,721 L 730,719 L 731,718 L 731,715 L 732,714 L 732,711 L 733,710 L 733,707 L 734,706 L 734,704 L 735,703 L 735,700 L 736,699 L 736,696 L 737,695 L 737,692 L 738,691 L 738,688 L 739,687 L 739,684 L 740,683 L 740,681 L 741,680 L 741,677 L 742,676 L 742,673 L 743,672 L 743,669 L 744,668 L 744,665 L 745,664 L 745,661 L 746,660 L 746,656 L 747,655 L 747,652 L 748,651 L 748,647 L 749,646 L 749,643 L 750,642 L 750,638 L 751,637 L 751,632 L 752,631 L 752,626 L 753,625 L 753,610 L 752,609 L 752,605 L 751,604 L 751,601 L 750,600 L 750,599 L 749,598 L 749,597 L 748,596 L 748,595 L 747,594 L 747,593 L 745,591 L 745,590 L 741,586 L 740,586 L 738,584 L 737,584 L 735,582 L 734,582 L 732,580 L 731,580 L 730,579 L 729,579 L 728,578 L 727,578 L 726,577 L 725,577 L 724,576 L 723,576 L 722,575 L 720,575 L 719,574 L 718,574 L 717,573 L 716,573 L 715,572 L 714,572 L 713,571 L 711,571 L 710,570 L 709,570 L 708,569 L 707,569 L 706,568 L 705,568 L 704,567 L 703,567 L 701,565 L 701,564 L 702,563 L 702,561 L 703,560 L 703,559 L 704,558 L 704,556 L 705,555 L 705,554 L 706,553 L 706,552 L 707,551 L 707,550 L 708,549 L 708,547 L 709,546 L 709,545 L 710,544 L 710,543 L 711,542 L 711,541 L 712,540 L 712,538 L 713,537 L 713,536 L 714,535 L 714,534 L 715,533 L 715,531 L 716,530 L 716,529 L 717,528 L 717,527 L 718,526 L 718,524 L 719,523 L 719,522 L 720,521 L 720,520 L 721,519 L 721,518 L 722,517 L 722,515 L 723,514 L 723,513 L 724,512 L 724,511 L 725,510 L 725,509 L 726,508 L 726,506 L 727,505 L 727,504 L 728,503 L 728,502 L 729,501 L 729,500 L 730,499 L 730,497 L 731,496 L 731,495 L 732,494 L 732,493 L 733,492 L 733,491 L 734,490 L 734,488 L 735,487 L 735,486 L 736,485 L 736,484 L 737,483 L 737,482 L 738,481 L 738,479 L 739,478 L 739,477 L 740,476 L 740,475 L 741,474 L 741,473 L 742,472 L 742,470 L 743,469 L 743,468 L 744,467 L 744,466 L 745,465 L 745,464 L 746,463 L 746,462 L 733,462 L 732,461 L 721,461 L 720,460 L 710,460 L 709,459 L 703,459 L 702,458 L 695,458 L 694,457 L 688,457 L 687,456 L 682,456 L 681,455 L 676,455 L 675,454 L 670,454 L 669,453 L 665,453 L 664,452 L 659,452 L 658,451 L 654,451 L 653,450 L 649,450 L 648,449 L 645,449 L 644,448 L 640,448 L 639,447 L 635,447 L 634,446 L 631,446 L 630,445 L 627,445 L 626,444 L 622,444 L 621,443 L 618,443 L 617,442 L 614,442 L 613,441 L 610,441 L 609,440 L 607,440 L 606,439 L 603,439 L 602,438 L 599,438 L 598,437 L 595,437 L 594,436 L 592,436 L 591,435 L 588,435 L 587,434 L 585,434 L 584,433 L 581,433 L 580,432 L 578,432 L 577,431 L 575,431 L 574,430 L 571,430 L 570,429 L 568,429 L 567,428 L 565,428 L 564,427 L 561,427 L 560,426 L 558,426 L 557,425 L 555,425 L 554,424 L 552,424 L 551,423 L 549,423 L 548,422 L 546,422 L 545,421 L 543,421 L 542,420 L 540,420 L 539,419 L 537,419 L 536,418 L 534,418 L 533,417 L 531,417 L 530,416 L 528,416 L 527,415 L 525,415 L 524,414 L 522,414 L 521,413 L 519,413 L 518,412 L 516,412 L 515,411 L 514,411 L 513,410 L 511,410 L 510,409 L 508,409 L 507,408 L 506,408 L 505,407 L 503,407 L 502,406 L 500,406 L 499,405 L 498,405 L 497,404 L 495,404 L 494,403 L 493,403 L 492,402 L 490,402 L 489,401 L 488,401 L 487,400 L 485,400 L 484,399 L 483,399 L 482,398 L 480,398 L 479,397 L 478,397 L 477,396 L 476,396 L 475,395 L 473,395 L 472,394 L 471,394 L 470,393 L 469,393 L 468,392 L 467,392 L 466,391 L 464,391 L 463,390 L 462,390 L 461,389 L 460,389 L 459,388 L 458,388 L 457,387 L 455,387 L 454,386 L 453,386 L 452,385 L 451,385 L 450,384 L 449,384 L 448,383 L 446,383 L 445,382 L 444,382 L 443,381 L 442,381 L 441,380 L 440,380 L 439,379 L 438,379 L 437,378 L 436,378 L 435,377 L 434,377 L 433,376 L 432,376 L 431,375 L 430,375 L 429,374 L 428,374 L 427,373 L 426,373 L 425,372 L 424,372 L 422,370 L 421,370 L 420,369 L 419,369 L 418,368 L 417,368 L 416,367 L 415,367 L 414,366 L 413,366 L 411,364 L 410,364 L 409,363 L 408,363 L 406,361 L 405,361 L 404,360 L 403,360 L 402,359 L 401,359 L 399,357 L 398,357 L 396,355 L 395,355 L 394,354 L 393,354 L 391,352 L 390,352 L 388,350 L 387,350 L 385,348 L 384,348 L 382,346 L 381,346 L 379,344 L 378,344 L 375,341 L 374,341 L 371,338 L 370,338 L 367,335 L 366,335 L 362,331 L 361,331 L 355,325 L 354,325 L 342,313 L 343,312 L 344,312 L 345,313 L 346,313 L 348,315 L 349,315 L 351,317 L 352,317 L 355,320 L 356,320 L 358,322 L 359,322 L 361,324 L 362,324 L 364,326 L 365,326 L 366,327 L 367,327 L 369,329 L 370,329 L 371,330 L 372,330 L 374,332 L 375,332 L 376,333 L 377,333 L 379,335 L 380,335 L 381,336 L 382,336 L 384,338 L 385,338 L 386,339 L 387,339 L 388,340 L 389,340 L 390,341 L 391,341 L 393,343 L 394,343 L 395,344 L 396,344 L 397,345 L 398,345 L 399,346 L 400,346 L 401,347 L 402,347 L 404,349 L 405,349 L 406,350 L 407,350 L 408,351 L 409,351 L 410,352 L 411,352 L 412,353 L 413,353 L 414,354 L 415,354 L 416,355 L 417,355 L 418,356 L 419,356 L 420,357 L 421,357 L 422,358 L 423,358 L 424,359 L 425,359 L 426,360 L 427,360 L 428,361 L 429,361 L 430,362 L 431,362 L 432,363 L 434,363 L 435,364 L 436,364 L 437,365 L 438,365 L 439,366 L 440,366 L 441,367 L 442,367 L 443,368 L 445,368 L 446,369 L 447,369 L 448,370 L 449,370 L 450,371 L 452,371 L 453,372 L 454,372 L 455,373 L 457,373 L 458,374 L 459,374 L 460,375 L 461,375 L 462,376 L 464,376 L 465,377 L 467,377 L 468,378 L 469,378 L 470,379 L 472,379 L 473,380 L 474,380 L 475,381 L 477,381 L 478,382 L 479,382 L 480,383 L 482,383 L 483,384 L 484,384 L 485,385 L 487,385 L 488,386 L 490,386 L 491,387 L 493,387 L 494,388 L 495,388 L 496,389 L 498,389 L 499,390 L 501,390 L 502,391 L 504,391 L 505,392 L 507,392 L 508,393 L 510,393 L 511,394 L 513,394 L 514,395 L 516,395 L 517,396 L 518,396 L 519,397 L 522,397 L 523,398 L 525,398 L 526,399 L 528,399 L 529,400 L 531,400 L 532,401 L 534,401 L 535,402 L 537,402 L 538,403 L 540,403 L 541,404 L 543,404 L 544,405 L 547,405 L 548,406 L 550,406 L 551,407 L 553,407 L 554,408 L 557,408 L 558,409 L 560,409 L 561,410 L 563,410 L 564,411 L 567,411 L 568,412 L 571,412 L 572,413 L 574,413 L 575,414 L 578,414 L 579,415 L 582,415 L 583,416 L 585,416 L 586,417 L 589,417 L 590,418 L 593,418 L 594,419 L 597,419 L 598,420 L 601,420 L 602,421 L 605,421 L 606,422 L 609,422 L 610,423 L 613,423 L 614,424 L 618,424 L 619,425 L 622,425 L 623,426 L 626,426 L 627,427 L 631,427 L 632,428 L 636,428 L 637,429 L 641,429 L 642,430 L 646,430 L 647,431 L 651,431 L 652,432 L 656,432 L 657,433 L 661,433 L 662,434 L 667,434 L 668,435 L 673,435 L 674,436 L 679,436 L 680,437 L 686,437 L 687,438 L 694,438 L 695,439 L 702,439 L 703,440 L 712,440 L 713,441 L 724,441 L 725,442 L 762,442 L 763,441 L 768,441 L 769,440 L 772,440 L 773,439 L 775,439 L 776,438 L 778,438 L 779,437 L 780,437 L 781,436 L 782,436 L 783,435 L 784,435 L 786,433 L 787,433 L 794,426 L 794,425 L 795,424 L 795,423 L 796,422 L 796,421 L 797,420 L 797,418 L 798,417 L 798,415 L 799,414 L 799,412 L 800,411 L 800,409 L 801,408 L 801,405 L 802,404 L 802,402 L 803,401 L 803,399 L 804,398 L 804,396 L 805,395 L 805,393 L 806,392 L 806,390 L 807,389 L 807,387 L 808,386 L 808,383 L 809,382 L 809,380 L 810,379 L 810,377 L 811,376 L 811,374 L 812,373 L 812,371 L 813,370 L 813,368 L 814,367 L 814,365 L 815,364 L 815,362 L 816,361 L 816,358 L 817,357 L 817,355 L 818,354 L 818,352 L 817,352 L 816,353 L 808,353 L 807,354 L 769,354 L 768,353 L 756,353 L 755,352 L 747,352 L 746,351 L 739,351 L 738,350 L 731,350 L 730,349 L 724,349 L 723,348 L 718,348 L 717,347 L 712,347 L 711,346 L 706,346 L 705,345 L 700,345 L 699,344 L 694,344 L 693,343 L 689,343 L 688,342 L 684,342 L 683,341 L 679,341 L 678,340 L 674,340 L 673,339 L 669,339 L 668,338 L 664,338 L 663,337 L 659,337 L 658,336 L 655,336 L 654,335 L 650,335 L 649,334 L 646,334 L 645,333 L 642,333 L 641,332 L 637,332 L 636,331 L 633,331 L 632,330 L 629,330 L 628,329 L 625,329 L 624,328 L 621,328 L 620,327 L 617,327 L 616,326 L 613,326 L 612,325 L 609,325 L 608,324 L 606,324 L 605,323 L 602,323 L 601,322 L 598,322 L 597,321 L 595,321 L 594,320 L 591,320 L 590,319 L 588,319 L 587,318 L 585,318 L 584,317 L 581,317 L 580,316 L 578,316 L 577,315 L 575,315 L 574,314 L 571,314 L 570,313 L 568,313 L 567,312 L 565,312 L 564,311 L 562,311 L 561,310 L 559,310 L 558,309 L 556,309 L 555,308 L 553,308 L 552,307 L 550,307 L 549,306 L 547,306 L 546,305 L 544,305 L 543,304 L 541,304 L 540,303 L 538,303 L 537,302 L 535,302 L 534,301 L 532,301 L 531,300 L 530,300 L 529,299 L 527,299 L 526,298 L 524,298 L 523,297 L 522,297 L 521,296 L 519,296 L 518,295 L 516,295 L 515,294 L 513,294 L 512,293 L 511,293 L 510,292 L 508,292 L 507,291 L 506,291 L 505,290 L 503,290 L 502,289 L 500,289 L 499,288 L 498,288 L 497,287 L 495,287 L 494,286 L 493,286 L 492,285 L 491,285 L 490,284 L 488,284 L 487,283 L 486,283 L 485,282 L 483,282 L 482,281 L 481,281 L 480,280 L 479,280 L 478,279 L 476,279 L 475,278 L 474,278 L 473,277 L 472,277 L 471,276 L 469,276 L 468,275 L 467,275 L 466,274 L 465,274 L 464,273 L 463,273 L 462,272 L 461,272 L 460,271 L 459,271 L 458,270 L 457,270 L 456,269 L 455,269 L 454,268 L 452,268 L 451,267 L 450,267 L 449,266 L 448,266 L 447,265 L 446,265 L 444,263 L 443,263 L 442,262 L 441,262 L 440,261 L 439,261 L 438,260 L 437,260 L 436,259 L 435,259 L 434,258 L 433,258 L 432,257 L 431,257 L 429,255 L 428,255 L 427,254 L 426,254 L 424,252 L 423,252 L 422,251 L 421,251 L 419,249 L 418,249 L 417,248 L 416,248 L 414,246 L 413,246 L 411,244 L 410,244 L 408,242 L 407,242 L 404,239 L 403,239 L 401,237 L 400,237 L 396,233 L 395,233 L 391,229 L 390,229 L 374,213 L 374,212 L 371,209 L 371,208 L 369,206 L 369,205 L 368,204 L 368,203 L 367,202 L 367,201 L 366,200 L 366,199 L 365,198 L 365,196 L 364,195 L 364,186 L 365,185 L 365,183 L 366,182 L 366,181 L 367,180 L 367,179 L 372,174 L 373,174 L 375,172 L 376,172 L 377,171 L 378,171 L 379,172 L 379,173 L 378,174 L 378,175 L 377,176 L 377,177 L 376,178 L 376,186 L 377,187 L 377,188 L 378,189 L 378,191 L 380,193 L 380,194 L 382,196 L 382,197 L 386,201 L 386,202 L 395,211 L 396,211 L 401,216 L 402,216 L 405,219 L 406,219 L 409,222 L 410,222 L 413,225 L 414,225 L 416,227 L 417,227 L 419,229 L 420,229 L 422,231 L 423,231 L 424,232 L 425,232 L 427,234 L 428,234 L 429,235 L 430,235 L 432,237 L 433,237 L 434,238 L 435,238 L 436,239 L 437,239 L 439,241 L 440,241 L 441,242 L 442,242 L 443,243 L 444,243 L 445,244 L 446,244 L 447,245 L 448,245 L 449,246 L 450,246 L 451,247 L 452,247 L 453,248 L 454,248 L 455,249 L 456,249 L 457,250 L 458,250 L 459,251 L 460,251 L 461,252 L 462,252 L 463,253 L 464,253 L 465,254 L 466,254 L 467,255 L 468,255 L 469,256 L 471,256 L 472,257 L 473,257 L 474,258 L 475,258 L 476,259 L 477,259 L 478,260 L 480,260 L 481,261 L 482,261 L 483,262 L 484,262 L 485,263 L 487,263 L 488,264 L 489,264 L 490,265 L 492,265 L 493,266 L 494,266 L 495,267 L 497,267 L 498,268 L 499,268 L 500,269 L 501,269 L 502,270 L 504,270 L 505,271 L 507,271 L 508,272 L 509,272 L 510,273 L 512,273 L 513,274 L 514,274 L 515,275 L 517,275 L 518,276 L 519,276 L 520,277 L 522,277 L 523,278 L 525,278 L 526,279 L 528,279 L 529,280 L 530,280 L 531,281 L 533,281 L 534,282 L 536,282 L 537,283 L 539,283 L 540,284 L 542,284 L 543,285 L 544,285 L 545,286 L 547,286 L 548,287 L 550,287 L 551,288 L 554,288 L 555,289 L 557,289 L 558,290 L 560,290 L 561,291 L 563,291 L 564,292 L 566,292 L 567,293 L 570,293 L 571,294 L 573,294 L 574,295 L 576,295 L 577,296 L 580,296 L 581,297 L 583,297 L 584,298 L 586,298 L 587,299 L 590,299 L 591,300 L 594,300 L 595,301 L 597,301 L 598,302 L 601,302 L 602,303 L 605,303 L 606,304 L 608,304 L 609,305 L 612,305 L 613,306 L 616,306 L 617,307 L 620,307 L 621,308 L 624,308 L 625,309 L 628,309 L 629,310 L 632,310 L 633,311 L 636,311 L 637,312 L 641,312 L 642,313 L 645,313 L 646,314 L 650,314 L 651,315 L 654,315 L 655,316 L 659,316 L 660,317 L 664,317 L 665,318 L 669,318 L 670,319 L 675,319 L 676,320 L 680,320 L 681,321 L 686,321 L 687,322 L 693,322 L 694,323 L 700,323 L 701,324 L 707,324 L 708,325 L 714,325 L 715,326 L 723,326 L 724,327 L 733,327 L 734,328 L 745,328 L 746,329 L 789,329 L 790,328 L 797,328 L 798,327 L 802,327 L 803,326 L 807,326 L 808,325 L 810,325 L 811,324 L 813,324 L 814,323 L 816,323 L 817,322 L 818,322 L 819,321 L 820,321 L 821,320 L 822,320 L 824,318 L 825,318 L 831,312 L 831,311 L 832,310 L 832,309 L 833,308 L 833,307 L 834,306 L 834,299 L 833,298 L 833,295 L 832,294 L 832,293 L 831,292 L 831,291 L 830,290 L 830,289 L 828,287 L 828,286 L 825,283 L 825,282 L 815,272 L 814,272 L 813,271 L 811,273 L 810,273 L 809,274 L 807,274 L 806,275 L 804,275 L 803,276 L 800,276 L 799,277 L 793,277 L 792,278 L 776,278 L 775,277 L 766,277 L 765,276 L 759,276 L 758,275 L 753,275 L 752,274 L 748,274 L 747,273 L 743,273 L 742,272 L 739,272 L 738,271 L 735,271 L 734,270 L 731,270 L 730,269 L 727,269 L 726,268 L 724,268 L 723,267 L 720,267 L 719,266 L 717,266 L 716,265 L 714,265 L 713,264 L 711,264 L 710,263 L 708,263 L 707,262 L 705,262 L 704,261 L 702,261 L 701,260 L 699,260 L 698,259 L 697,259 L 696,258 L 694,258 L 693,257 L 692,257 L 691,256 L 690,256 L 689,255 L 687,255 L 686,254 L 685,254 L 684,253 L 683,253 L 682,252 L 681,252 L 680,251 L 679,251 L 678,250 L 677,250 L 676,249 L 675,249 L 674,248 L 673,248 L 672,247 L 671,247 L 670,246 L 669,246 L 668,245 L 667,245 L 666,244 L 665,244 L 664,243 L 663,243 L 661,241 L 660,241 L 659,240 L 658,240 L 656,238 L 655,238 L 653,236 L 652,236 L 650,234 L 649,234 L 647,232 L 646,232 L 644,230 L 645,229 L 647,229 L 648,230 L 649,230 L 650,231 L 652,231 L 653,232 L 654,232 L 655,233 L 657,233 L 658,234 L 659,234 L 660,235 L 661,235 L 662,236 L 664,236 L 665,237 L 666,237 L 667,238 L 669,238 L 670,239 L 671,239 L 672,240 L 674,240 L 675,241 L 676,241 L 677,242 L 679,242 L 680,243 L 682,243 L 683,244 L 685,244 L 686,245 L 687,245 L 688,246 L 690,246 L 691,247 L 693,247 L 694,248 L 696,248 L 697,249 L 699,249 L 700,250 L 702,250 L 703,251 L 705,251 L 706,252 L 709,252 L 710,253 L 712,253 L 713,254 L 716,254 L 717,255 L 719,255 L 720,256 L 723,256 L 724,257 L 727,257 L 728,258 L 732,258 L 733,259 L 736,259 L 737,260 L 741,260 L 742,261 L 747,261 L 748,262 L 754,262 L 755,263 L 763,263 L 764,264 L 778,264 L 779,263 L 783,263 L 784,262 L 787,262 L 788,261 L 789,261 L 790,260 L 791,260 L 792,259 L 793,259 L 797,255 L 797,254 L 798,253 L 798,251 L 799,250 L 799,248 L 800,247 L 800,244 L 801,243 L 801,241 L 802,240 L 802,237 L 803,236 L 803,234 L 804,233 L 804,230 L 805,229 L 805,227 L 806,226 L 806,224 L 807,223 L 807,221 L 808,220 L 808,217 L 809,216 L 809,214 L 810,213 L 810,211 L 811,210 L 811,207 L 812,206 L 812,204 L 813,203 L 813,201 L 814,200 L 814,197 L 815,196 L 815,194 L 816,193 L 816,191 L 817,190 L 817,188 L 818,187 L 818,184 L 819,183 L 819,181 L 820,180 L 820,178 L 821,177 L 821,174 L 822,173 L 822,171 L 823,170 L 823,168 L 824,167 L 824,165 L 825,164 L 825,161 L 826,160 L 826,158 L 827,157 L 827,155 L 828,154 L 828,152 L 829,151 L 829,148 L 830,147 L 830,145 L 831,144 L 831,142 L 832,141 L 832,139 L 833,138 L 833,135 L 834,134 L 834,132 L 835,131 L 835,129 L 836,128 L 836,126 L 837,125 L 837,123 L 838,122 L 838,119 L 839,118 L 839,116 L 840,115 L 840,113 L 841,112 L 841,110 L 842,109 L 842,106 L 843,105 L 843,103 L 844,102 L 844,100 L 845,99 L 845,97 L 846,96 L 846,93 L 847,92 L 847,90 L 848,89 L 848,87 L 849,86 L 849,84 L 850,83 L 850,81 L 851,80 L 851,73 L 850,72 L 850,71 L 848,69 L 847,69 L 846,68 L 843,68 L 842,67 L 840,67 L 839,66 L 837,66 L 836,65 L 834,65 L 833,64 L 830,64 L 829,63 L 827,63 L 826,62 L 824,62 L 823,61 L 820,61 L 819,60 L 817,60 L 816,59 L 814,59 L 813,58 L 811,58 L 810,57 L 807,57 L 806,56 L 804,56 L 803,55 L 801,55 L 800,54 L 798,54 L 797,53 L 794,53 L 793,52 L 791,52 L 790,51 L 788,51 L 787,50 L 785,50 L 784,49 L 781,49 L 780,48 L 778,48 L 777,47 L 775,47 L 774,46 L 771,46 L 770,45 L 768,45 L 767,44 L 765,44 L 764,43 L 761,43 L 760,42 L 758,42 L 757,41 L 755,41 L 754,40 L 752,40 L 751,39 L 748,39 L 747,38 L 745,38 L 744,37 L 742,37 L 741,36 L 739,36 L 738,35 L 735,35 L 734,34 L 732,34 L 731,33 L 729,33 L 728,32 L 725,32 L 724,31 L 722,31 L 721,30 L 719,30 L 718,29 L 715,29 L 714,28 L 712,28 L 711,27 L 709,27 L 708,26 L 706,26 L 705,25 L 702,25 L 701,24 L 699,24 L 698,23 L 696,23 L 695,22 L 692,22 L 691,21 L 689,21 L 688,20 L 686,20 L 685,19 L 683,19 L 682,18 L 680,18 L 679,17 L 676,17 L 675,16 L 673,16 L 672,15 L 670,15 L 669,14 L 666,14 L 665,13 L 663,13 L 662,12 L 660,12 L 659,11 L 656,11 L 655,10 L 653,10 L 652,9 L 650,9 L 649,8 L 647,8 L 646,7 L 644,7 L 643,6 L 640,6 L 639,5 L 637,5 L 636,4 Z" fill="currentColor" />
</svg>
